<svg id="Слой_1" data-name="Слой 1" xmlns="http://www.w3.org/2000/svg" viewBox="0 0 166.81 35.17"><defs><style>.cls-1{fill:#ee7203;}</style></defs><path class="cls-1" d="M7.24,21h5.39c2,3,4.76,5.36,8,8.06C22,30.2,23.44,31.4,25,32.81l2.35,2.12,2.34-2.12c1.58-1.41,3-2.61,4.39-3.77,4.65-3.89,8.32-7,10.21-12.55l.07-.24c1-4.12.67-8-1.08-11a9.92,9.92,0,0,0-6-4.6A11,11,0,0,0,27.4,2.8,11,11,0,0,0,17.55.68a10,10,0,0,0-6.05,4.6A13.69,13.69,0,0,0,10,14.18H7.24V.07H.18V35.3H7.24ZM17.44,8.89A2.78,2.78,0,0,1,19.2,7.53c2.13-.55,3.23.3,5,1.83.32.28.64.55.93.78l2.2,1.75,2.18-1.75c.31-.23.61-.5.94-.78,1.76-1.53,2.87-2.37,5-1.83a2.78,2.78,0,0,1,1.76,1.36,7.56,7.56,0,0,1,.36,5.49c-1.27,3.64-3.82,5.78-8,9.29-.69.59-1.44,1.2-2.21,1.87-.78-.67-1.53-1.28-2.22-1.87-4.19-3.51-6.74-5.65-8-9.29a7.55,7.55,0,0,1,.35-5.49"/><path d="M61.43,2.58V19.91h-2V4.48h-4c-.25,5.25-.47,9.68-.77,11.79-.37,2.69-1.66,3.88-3.83,3.88v-1.9c1.11,0,1.65-.82,1.88-2.38.24-1.83.49-6.21.76-13.29Z"/><path d="M77.69,11.39v4c0,3.09-1.68,4.83-4.33,4.83s-4.31-1.74-4.31-4.83V14.16H66.92v5.75H65v-13h1.9v5.45h2.13v-.94c0-3.12,1.69-4.83,4.31-4.83S77.69,8.27,77.69,11.39Zm-2,0c0-2-.89-2.92-2.38-2.92S71,9.36,71,11.39v4c0,2,.9,2.92,2.38,2.92s2.38-.91,2.38-2.92Z"/><path d="M79,18.1h1a12.36,12.36,0,0,0,1.21-5.2c.15-2,.22-4,.25-6h7.18V18.1h1.46v4.68H88.17V19.91h-7.3v2.87H79Zm7.68,0V8.69H83.27c0,1.54-.08,3.05-.2,4.58a17,17,0,0,1-.94,4.83Z"/><path d="M92.28,6.88h1.91v6.44c0,1,0,2.08,0,3.27l0,.05c.22-.6.79-2,1.13-2.82l3.32-6.94h2v13H98.74v-6c0-1.28,0-2.64.1-3.83l0,0a31.12,31.12,0,0,1-1.26,3.2l-3.27,6.66h-2Z"/><path d="M113.18,2.58V19.91h-2V4.48h-4c-.25,5.25-.47,9.68-.77,11.79-.37,2.69-1.65,3.88-3.83,3.88v-1.9c1.11,0,1.66-.82,1.88-2.38.25-1.83.49-6.21.77-13.29Z"/><path d="M129.44,11.39v4c0,3.09-1.68,4.83-4.33,4.83s-4.31-1.74-4.31-4.83V14.16h-2.12v5.75h-1.91v-13h1.91v5.45h2.12v-.94c0-3.12,1.69-4.83,4.31-4.83S129.44,8.27,129.44,11.39Zm-2,0c0-2-.89-2.92-2.38-2.92s-2.38.89-2.38,2.92v4c0,2,.9,2.92,2.38,2.92s2.38-.91,2.38-2.92Z"/><path d="M141.35,12.4v2.95c0,3.09-1.73,4.83-4.43,4.83s-4.38-1.74-4.38-4.83V8.27c0-3.49,2.45-4.68,4.23-5.22a3.24,3.24,0,0,0,2.36-1.56l1.48,1.14a4.38,4.38,0,0,1-3.09,2.2c-1.37.37-3.05.89-3.05,3.37V9a3.48,3.48,0,0,1,2.9-1.33C139.72,7.68,141.35,9.38,141.35,12.4Zm-2,.2c0-2.13-.91-3-2.37-3-1.29,0-2.48.74-2.48,2.92v2.87c0,2,.89,2.92,2.4,2.92s2.45-.91,2.45-2.92Z"/><path d="M151.66,6.88v13h-1.89V15.33h-1.71l-2.64,4.58h-2.26l3-4.78c-1.48-.45-2.52-1.91-2.52-4.06a4,4,0,0,1,4.26-4.19Zm-1.89,1.81h-1.85a2.19,2.19,0,0,0-2.38,2.43c0,1.61.77,2.5,2.28,2.5h2Z"/><path d="M161.81,8.69h-3.1V19.91h-1.93V8.69h-3.09V6.88h8.12Z"/><path d="M73.07,32.17c.57,0,.75-.77.83-1.8s.12-2,.14-3.43h2.77v5.61h-.46V27.38H74.5c0,1.32-.08,2.45-.13,3.07-.11,1.33-.44,2.17-1.3,2.17Z"/><path d="M78.51,26.94H79v3.62c0,.36,0,.81,0,1.15h0c.09-.22.28-.61.41-.87l2-3.91h.48v5.61h-.46V29.13c0-.5,0-1,0-1.39h0c-.11.27-.31.69-.48,1l-2,3.79h-.46Z"/><path d="M86.52,26.94v5.61h-.47V30.32a2.54,2.54,0,0,1-1.19.27c-1,0-1.68-.72-1.68-2V26.94h.46v1.65c0,1,.51,1.55,1.26,1.55a2.07,2.07,0,0,0,1.15-.3v-2.9Z"/><path d="M91.48,26.94v5.61H91v-2.7H88.69v2.7h-.47V26.94h.47v2.47H91V26.94Z"/><path d="M96.52,30.8a1.71,1.71,0,0,1-1.77,1.75H93.19V27h.46v2.08h1.1A1.71,1.71,0,0,1,96.52,30.8Zm-.47,0a1.24,1.24,0,0,0-1.3-1.3h-1.1v2.6h1.1A1.24,1.24,0,0,0,96.05,30.8ZM97.85,27v5.58h-.47V27Z"/><path d="M99.55,26.94H100v3.62c0,.36,0,.81,0,1.15h0c.09-.22.28-.61.41-.87l2-3.91h.49v5.61h-.46V29.13c0-.5,0-1,0-1.39h0c-.11.27-.31.69-.49,1L100,32.55h-.46Zm.53-2.07h.42c0,.51.26.78.72.78s.71-.27.73-.78h.42a1.15,1.15,0,1,1-2.29,0Z"/><path d="M108.4,29.73l-.55.65v2.17h-.46V26.94h.46v2.77c.28-.33.56-.67.83-1l1.45-1.76h.6l-2,2.42L111,32.55h-.57Z"/><path d="M115.08,28.59v4h-.41l0-.6a1.53,1.53,0,0,1-1.39.72A1.58,1.58,0,0,1,111.57,31c0-1.05.68-1.65,1.89-1.65h1.16V28.6c0-.86-.42-1.34-1.18-1.34a1.13,1.13,0,0,0-1.23,1.08h-.47a1.67,1.67,0,0,1,3.34.25Zm-.46,2.33V29.74h-1.17c-.92,0-1.41.44-1.41,1.24a1.16,1.16,0,0,0,1.27,1.24A1.2,1.2,0,0,0,114.62,30.92Z"/><path d="M120.31,29.16v1.59a1.77,1.77,0,1,1-3.52,0V27.49a2.13,2.13,0,0,1,1.75-2.14,1.39,1.39,0,0,0,1.06-.73l.38.27a1.8,1.8,0,0,1-1.31.93,1.59,1.59,0,0,0-1.42,1.67v.56a1.54,1.54,0,0,1,1.45-.85C119.69,27.2,120.31,27.9,120.31,29.16Zm-.47.08c0-1.08-.46-1.59-1.22-1.59s-1.37.46-1.37,1.59v1.51c0,.95.5,1.46,1.29,1.46s1.3-.51,1.3-1.46Z"/><path d="M121.88,26.94h.47v3.62c0,.36,0,.81,0,1.15h0c.08-.22.27-.61.4-.87l2-3.91h.48v5.61h-.46V29.13c0-.5,0-1,0-1.39h0c-.11.27-.31.69-.48,1l-1.94,3.79h-.47Z"/><path d="M130.18,26.94v5.61h-.47v-2.7h-2.33v2.7h-.46V26.94h.46v2.47h2.33V26.94Z"/><path d="M135.34,30.87a1.75,1.75,0,0,1-1.87,1.79,1.68,1.68,0,0,1-1.72-1.9v-2a1.69,1.69,0,0,1,1.74-1.9,1.71,1.71,0,0,1,1.77,1.9V30h-3v.78c0,.94.48,1.45,1.28,1.45s1.29-.48,1.38-1.34Zm-3.13-2.15v.83h2.59v-.83a1.27,1.27,0,0,0-1.31-1.45C132.69,27.27,132.21,27.79,132.21,28.72Z"/><path d="M139.53,27.37h-1.42v5.18h-.46V27.37h-1.4v-.43h3.28Z"/><path class="cls-1" d="M64.38,28.71a.77.77,0,0,1,1.41.36c.07.62-1,1.36-1.41,1.79-.39-.43-1.47-1.17-1.41-1.79A.77.77,0,0,1,64.38,28.71Z"/><path class="cls-1" d="M149.29,28.71a.78.78,0,0,1,1.42.36c.06.62-1,1.36-1.42,1.79-.39-.43-1.47-1.17-1.41-1.79A.77.77,0,0,1,149.29,28.71Z"/></svg>